<svg xmlns="http://www.w3.org/2000/svg" width="32.916" height="28.652" viewBox="0 0 32.916 28.652">
  <g id="Group_13" data-name="Group 13" transform="translate(0 0)">
    <path id="Path_1" data-name="Path 1" d="M99.268,38.478v4.046a.008.008,0,0,1-.008.008H94.508a9.808,9.808,0,0,0-9.234,6.308l-.031.07-2.3,6.261H82.93l-3.375,9.168a.008.008,0,0,0,.008.011h7.854a.009.009,0,0,0,.008-.005l3.625-9.819a.007.007,0,0,0,0-.009l-1.264-.995a.393.393,0,0,1,0-.619l3.087-2.43,2-1.571.517-.4,3.221-2.539a.41.41,0,0,1,.665.317l-.006,2.083.006,4.033a.4.4,0,0,0,.651.31l8.836-6.943a.39.39,0,0,0,0-.617L99.9,38.171A.392.392,0,0,0,99.268,38.478Zm.008,6.972Z" transform="translate(-79.555 -35.698)" fill="#b0e0e2"/>
    <path id="Path_2" data-name="Path 2" d="M104.78,35.063c-.188-.015-.384-.023-.58-.023H93.844a3.148,3.148,0,0,0-2.9,1.966c-.1.254-.229.638-4.1,11.135a9.832,9.832,0,0,1,9.253-6.3c.274,0,.426,0,.806,0h3.936V37.789a.4.4,0,0,1,.641-.3l1.829,1.438,7.029,5.527a.386.386,0,0,1,0,.609l-8.85,6.95a.4.4,0,0,1-.641-.3V45.55a.4.4,0,0,0-.641-.3l-8.857,6.961a.386.386,0,0,0,0,.609l8.857,6.961a.4.4,0,0,0,.641-.3v-5.02c4.161.011,5.532-.036,7.173-.75a9.684,9.684,0,0,0-3.246-18.639Z" transform="translate(-81.13 -35.04)" fill="#3e1374"/>
  </g>
</svg>
