<svg xmlns="http://www.w3.org/2000/svg" width="162.12" height="30" viewBox="0 0 162.12 30">
  <g id="Group_1" data-name="Group 1" transform="translate(-397 -104.664)">
    <g id="Group_13" data-name="Group 13" transform="translate(397 104.664)">
      <path id="Path_1" data-name="Path 1" d="M99.268,38.478v4.046a.008.008,0,0,1-.008.008H94.508a9.808,9.808,0,0,0-9.234,6.308l-.031.07-2.3,6.261H82.93l-3.375,9.168a.008.008,0,0,0,.008.011h7.854a.009.009,0,0,0,.008-.005l3.625-9.819a.007.007,0,0,0,0-.009l-1.264-.995a.393.393,0,0,1,0-.619l3.087-2.43,2-1.571.517-.4,3.221-2.539a.41.41,0,0,1,.665.317l-.006,2.083.006,4.033a.4.4,0,0,0,.651.31l8.836-6.943a.39.39,0,0,0,0-.617L99.9,38.171A.392.392,0,0,0,99.268,38.478Zm.008,6.972Z" transform="translate(-79.555 -35.698)" fill="#b0e0e2"/>
      <path id="Path_2" data-name="Path 2" d="M104.78,35.063c-.188-.015-.384-.023-.58-.023H93.844a3.148,3.148,0,0,0-2.9,1.966c-.1.254-.229.638-4.1,11.135a9.832,9.832,0,0,1,9.253-6.3c.274,0,.426,0,.806,0h3.936V37.789a.4.4,0,0,1,.641-.3l1.829,1.438,7.029,5.527a.386.386,0,0,1,0,.609l-8.85,6.95a.4.4,0,0,1-.641-.3V45.55a.4.4,0,0,0-.641-.3l-8.857,6.961a.386.386,0,0,0,0,.609l8.857,6.961a.4.4,0,0,0,.641-.3v-5.02c4.161.011,5.532-.036,7.173-.75a9.684,9.684,0,0,0-3.246-18.639Z" transform="translate(-81.13 -35.04)" fill="#3e1374"/>
    </g>
    <path id="Path_3" data-name="Path 3" d="M14.88-87.409H18V-95.55h5.018a6.688,6.688,0,0,0,7.007-6.987,6.613,6.613,0,0,0-7.007-6.893H14.88ZM18-98.233v-8.515h4.545a3.917,3.917,0,0,1,4.292,4.211,4,4,0,0,1-4.324,4.3Zm13.319,6.394c0,3.15,2.683,4.8,5.429,4.8a5.52,5.52,0,0,0,5.113-3.119h.063a11.7,11.7,0,0,0-.063,1.248v1.5h2.841V-97.39c0-3.992-2.272-6.176-6.312-6.176a10.091,10.091,0,0,0-5.965,1.871l1.262,2.215a8.155,8.155,0,0,1,4.45-1.528c2.02,0,3.5.873,3.5,3.462v.281H40.95C38.267-97.266,31.324-97.047,31.324-91.839Zm3.093-.156c0-2.838,4.166-2.994,6.47-2.994h.789v.5c0,2.339-1.673,5.022-4.261,5.022C35.427-89.468,34.417-90.716,34.417-91.994ZM46.252-81.826a5.629,5.629,0,0,0,3.093.967,5.485,5.485,0,0,0,5.176-3.712L62-103.192H58.687L54.805-92.837c-.284.811-.537,1.871-.537,1.871h-.063s-.284-1.092-.6-1.9L49.6-103.192h-3.44l6.691,15.6-.789,1.809a3.256,3.256,0,0,1-2.872,2.308,3.586,3.586,0,0,1-1.862-.655Zm16.38-13.506a8.317,8.317,0,0,0,8.616,8.3,8.317,8.317,0,0,0,8.616-8.3,8.286,8.286,0,0,0-8.616-8.234A8.286,8.286,0,0,0,62.633-95.332Zm3.125,0a5.467,5.467,0,0,1,5.492-5.614,5.448,5.448,0,0,1,5.492,5.614,5.483,5.483,0,0,1-5.492,5.677A5.5,5.5,0,0,1,65.757-95.332Zm16.759,3.618c0,3.961,2.556,4.429,4.292,4.429a8.7,8.7,0,0,0,1.01-.062v-2.682a4.93,4.93,0,0,1-.537.031c-.947,0-1.7-.343-1.7-2.246V-109.43H82.516Zm6.6-3.618a8.317,8.317,0,0,0,8.616,8.3,8.317,8.317,0,0,0,8.616-8.3,8.286,8.286,0,0,0-8.616-8.234A8.286,8.286,0,0,0,89.113-95.332Zm3.125,0a5.467,5.467,0,0,1,5.492-5.614,5.448,5.448,0,0,1,5.492,5.614,5.483,5.483,0,0,1-5.492,5.677A5.5,5.5,0,0,1,92.237-95.332ZM110.606-84.54l-1.01,2.37a12.565,12.565,0,0,0,5.46,1.31c4.04,0,8.048-2,8.048-7.205v-15.127h-2.935v1.466a3.878,3.878,0,0,0,.032.5h-.063s-1.168-2.339-5.018-2.339c-4.419,0-6.975,3.369-6.975,7.891,0,4.554,2.683,8.078,7.133,8.078a5.082,5.082,0,0,0,4.734-2.464h.063s-.032.5-.032,1v1.154c0,3.213-2.272,4.429-5.05,4.429A10.382,10.382,0,0,1,110.606-84.54Zm5.271-5.677c-2.872,0-4.64-2.246-4.64-5.521,0-3.213,1.578-5.209,4.355-5.209,2.493,0,4.513,1.185,4.513,5.3S118.086-90.217,115.877-90.217Zm9,8.39a5.629,5.629,0,0,0,3.093.967,5.485,5.485,0,0,0,5.176-3.712l7.48-18.621h-3.314l-3.882,10.355c-.284.811-.537,1.871-.537,1.871h-.063s-.284-1.092-.6-1.9l-4.008-10.324h-3.44l6.691,15.6-.789,1.809a3.256,3.256,0,0,1-2.872,2.308,3.586,3.586,0,0,1-1.862-.655Z" transform="translate(418.498 215.523)" fill="#3e1374"/>
  </g>
</svg>
